<mxfile host="app.diagrams.net" modified="2024-03-27T18:26:02.181Z" agent="Mozilla/5.0 (Windows NT 10.0; Win64; x64; rv:124.0) Gecko/20100101 Firefox/124.0" etag="XPMd6jpaXOh8g3Jp0wEE" version="24.1.0" type="github">
  <diagram name="Page-1" id="YXknJHLhiS_htw9vMH9G">
    <mxGraphModel dx="1274" dy="677" grid="1" gridSize="10" guides="1" tooltips="1" connect="1" arrows="1" fold="1" page="1" pageScale="1" pageWidth="2339" pageHeight="3300" math="0" shadow="0">
      <root>
        <mxCell id="0" />
        <mxCell id="1" parent="0" />
        <mxCell id="b3icUw7pM6aVteXzmlpQ-3" style="edgeStyle=orthogonalEdgeStyle;rounded=0;orthogonalLoop=1;jettySize=auto;html=1;entryX=0.5;entryY=0;entryDx=0;entryDy=0;" edge="1" parent="1" source="b3icUw7pM6aVteXzmlpQ-1" target="b3icUw7pM6aVteXzmlpQ-2">
          <mxGeometry relative="1" as="geometry" />
        </mxCell>
        <mxCell id="b3icUw7pM6aVteXzmlpQ-1" value="Register" style="rounded=1;whiteSpace=wrap;html=1;" vertex="1" parent="1">
          <mxGeometry x="45" y="40" width="120" height="60" as="geometry" />
        </mxCell>
        <mxCell id="b3icUw7pM6aVteXzmlpQ-2" value="Register Handler" style="rounded=1;whiteSpace=wrap;html=1;" vertex="1" parent="1">
          <mxGeometry x="45" y="460" width="120" height="60" as="geometry" />
        </mxCell>
        <mxCell id="b3icUw7pM6aVteXzmlpQ-4" value="Sync" style="text;html=1;align=center;verticalAlign=middle;whiteSpace=wrap;rounded=0;" vertex="1" parent="1">
          <mxGeometry x="260" y="280" width="60" height="30" as="geometry" />
        </mxCell>
        <mxCell id="b3icUw7pM6aVteXzmlpQ-18" style="edgeStyle=orthogonalEdgeStyle;rounded=0;orthogonalLoop=1;jettySize=auto;html=1;entryX=0.75;entryY=1;entryDx=0;entryDy=0;" edge="1" parent="1" target="b3icUw7pM6aVteXzmlpQ-6">
          <mxGeometry relative="1" as="geometry">
            <mxPoint x="630" y="280" as="sourcePoint" />
          </mxGeometry>
        </mxCell>
        <mxCell id="b3icUw7pM6aVteXzmlpQ-32" style="edgeStyle=orthogonalEdgeStyle;rounded=0;orthogonalLoop=1;jettySize=auto;html=1;" edge="1" parent="1" source="b3icUw7pM6aVteXzmlpQ-5">
          <mxGeometry relative="1" as="geometry">
            <mxPoint x="1180" y="420" as="targetPoint" />
          </mxGeometry>
        </mxCell>
        <mxCell id="b3icUw7pM6aVteXzmlpQ-5" value="" style="ellipse;whiteSpace=wrap;html=1;" vertex="1" parent="1">
          <mxGeometry x="549" y="270" width="120" height="80" as="geometry" />
        </mxCell>
        <mxCell id="b3icUw7pM6aVteXzmlpQ-6" value="Register" style="rounded=1;whiteSpace=wrap;html=1;" vertex="1" parent="1">
          <mxGeometry x="540" y="40" width="120" height="60" as="geometry" />
        </mxCell>
        <mxCell id="b3icUw7pM6aVteXzmlpQ-7" style="edgeStyle=orthogonalEdgeStyle;rounded=0;orthogonalLoop=1;jettySize=auto;html=1;entryX=0.425;entryY=0.025;entryDx=0;entryDy=0;entryPerimeter=0;" edge="1" parent="1" source="b3icUw7pM6aVteXzmlpQ-6" target="b3icUw7pM6aVteXzmlpQ-5">
          <mxGeometry relative="1" as="geometry" />
        </mxCell>
        <mxCell id="b3icUw7pM6aVteXzmlpQ-8" value="" style="shape=cylinder3;whiteSpace=wrap;html=1;boundedLbl=1;backgroundOutline=1;size=15;" vertex="1" parent="1">
          <mxGeometry x="750" y="424" width="60" height="80" as="geometry" />
        </mxCell>
        <mxCell id="b3icUw7pM6aVteXzmlpQ-9" value="" style="outlineConnect=0;dashed=0;verticalLabelPosition=bottom;verticalAlign=top;align=center;html=1;shape=mxgraph.aws3.queue;fillColor=#D9A741;gradientColor=none;" vertex="1" parent="1">
          <mxGeometry x="400" y="456" width="73.5" height="48" as="geometry" />
        </mxCell>
        <mxCell id="b3icUw7pM6aVteXzmlpQ-10" style="edgeStyle=orthogonalEdgeStyle;rounded=0;orthogonalLoop=1;jettySize=auto;html=1;entryX=0.5;entryY=0;entryDx=0;entryDy=0;entryPerimeter=0;" edge="1" parent="1" source="b3icUw7pM6aVteXzmlpQ-5" target="b3icUw7pM6aVteXzmlpQ-8">
          <mxGeometry relative="1" as="geometry" />
        </mxCell>
        <mxCell id="b3icUw7pM6aVteXzmlpQ-11" value="DB" style="text;html=1;align=center;verticalAlign=middle;whiteSpace=wrap;rounded=0;" vertex="1" parent="1">
          <mxGeometry x="750" y="520" width="60" height="30" as="geometry" />
        </mxCell>
        <mxCell id="b3icUw7pM6aVteXzmlpQ-12" value="RequestID: Guid&lt;br&gt;Type: CourseRegisteration&lt;br&gt;Operation:Register&lt;br&gt;Status:(InProgress -Completed)&lt;br&gt;Error:" style="text;html=1;align=center;verticalAlign=middle;whiteSpace=wrap;rounded=0;" vertex="1" parent="1">
          <mxGeometry x="830" y="428" width="290" height="76" as="geometry" />
        </mxCell>
        <mxCell id="b3icUw7pM6aVteXzmlpQ-13" style="edgeStyle=orthogonalEdgeStyle;rounded=0;orthogonalLoop=1;jettySize=auto;html=1;entryX=0;entryY=0.5;entryDx=0;entryDy=0;entryPerimeter=0;" edge="1" parent="1" source="b3icUw7pM6aVteXzmlpQ-5" target="b3icUw7pM6aVteXzmlpQ-9">
          <mxGeometry relative="1" as="geometry" />
        </mxCell>
        <mxCell id="b3icUw7pM6aVteXzmlpQ-14" value="CourseRegisterCreatedEvent" style="text;html=1;align=center;verticalAlign=middle;whiteSpace=wrap;rounded=0;" vertex="1" parent="1">
          <mxGeometry x="389" y="260" width="160" height="40" as="geometry" />
        </mxCell>
        <mxCell id="b3icUw7pM6aVteXzmlpQ-16" value="1" style="text;html=1;align=center;verticalAlign=middle;resizable=0;points=[];autosize=1;strokeColor=none;fillColor=none;" vertex="1" parent="1">
          <mxGeometry x="950" y="380" width="30" height="30" as="geometry" />
        </mxCell>
        <mxCell id="b3icUw7pM6aVteXzmlpQ-17" value="2" style="text;html=1;align=center;verticalAlign=middle;resizable=0;points=[];autosize=1;strokeColor=none;fillColor=none;" vertex="1" parent="1">
          <mxGeometry x="443.5" y="235" width="30" height="30" as="geometry" />
        </mxCell>
        <mxCell id="b3icUw7pM6aVteXzmlpQ-19" value="Registration Under Processing&lt;br&gt;RequestId" style="text;html=1;align=center;verticalAlign=middle;resizable=0;points=[];autosize=1;strokeColor=none;fillColor=none;" vertex="1" parent="1">
          <mxGeometry x="640" y="165" width="180" height="40" as="geometry" />
        </mxCell>
        <mxCell id="b3icUw7pM6aVteXzmlpQ-20" value="CourseRegisterCreatedEventConsumer" style="ellipse;whiteSpace=wrap;html=1;" vertex="1" parent="1">
          <mxGeometry x="520" y="320" width="120" height="80" as="geometry" />
        </mxCell>
        <mxCell id="b3icUw7pM6aVteXzmlpQ-21" style="edgeStyle=orthogonalEdgeStyle;rounded=0;orthogonalLoop=1;jettySize=auto;html=1;entryX=1;entryY=0.5;entryDx=0;entryDy=0;entryPerimeter=0;exitX=0.5;exitY=1;exitDx=0;exitDy=0;" edge="1" parent="1" source="b3icUw7pM6aVteXzmlpQ-20" target="b3icUw7pM6aVteXzmlpQ-9">
          <mxGeometry relative="1" as="geometry" />
        </mxCell>
        <mxCell id="b3icUw7pM6aVteXzmlpQ-22" value="2 msg at a time maximum" style="text;html=1;align=center;verticalAlign=middle;resizable=0;points=[];autosize=1;strokeColor=none;fillColor=none;" vertex="1" parent="1">
          <mxGeometry x="490" y="490" width="160" height="30" as="geometry" />
        </mxCell>
        <mxCell id="b3icUw7pM6aVteXzmlpQ-23" value="" style="outlineConnect=0;dashed=0;verticalLabelPosition=bottom;verticalAlign=top;align=center;html=1;shape=mxgraph.aws3.queue;fillColor=#D9A741;gradientColor=none;" vertex="1" parent="1">
          <mxGeometry x="400" y="550" width="73.5" height="48" as="geometry" />
        </mxCell>
        <mxCell id="b3icUw7pM6aVteXzmlpQ-24" style="edgeStyle=orthogonalEdgeStyle;rounded=0;orthogonalLoop=1;jettySize=auto;html=1;entryX=1;entryY=0.5;entryDx=0;entryDy=0;entryPerimeter=0;exitX=1;exitY=0.5;exitDx=0;exitDy=0;" edge="1" parent="1" source="b3icUw7pM6aVteXzmlpQ-20" target="b3icUw7pM6aVteXzmlpQ-23">
          <mxGeometry relative="1" as="geometry" />
        </mxCell>
        <mxCell id="b3icUw7pM6aVteXzmlpQ-26" value="CourseRegisterFinishedEvent" style="text;html=1;align=center;verticalAlign=middle;resizable=0;points=[];autosize=1;strokeColor=none;fillColor=none;" vertex="1" parent="1">
          <mxGeometry x="480" y="578" width="180" height="30" as="geometry" />
        </mxCell>
        <mxCell id="b3icUw7pM6aVteXzmlpQ-27" style="edgeStyle=orthogonalEdgeStyle;rounded=0;orthogonalLoop=1;jettySize=auto;html=1;entryX=0.5;entryY=1;entryDx=0;entryDy=0;entryPerimeter=0;" edge="1" parent="1" target="b3icUw7pM6aVteXzmlpQ-8">
          <mxGeometry relative="1" as="geometry">
            <mxPoint x="580" y="400" as="sourcePoint" />
            <Array as="points">
              <mxPoint x="580" y="524" />
              <mxPoint x="780" y="524" />
            </Array>
          </mxGeometry>
        </mxCell>
        <mxCell id="b3icUw7pM6aVteXzmlpQ-30" style="edgeStyle=orthogonalEdgeStyle;rounded=0;orthogonalLoop=1;jettySize=auto;html=1;" edge="1" parent="1" source="b3icUw7pM6aVteXzmlpQ-28">
          <mxGeometry relative="1" as="geometry">
            <mxPoint x="100" y="690" as="targetPoint" />
          </mxGeometry>
        </mxCell>
        <mxCell id="b3icUw7pM6aVteXzmlpQ-28" value="notification service" style="ellipse;whiteSpace=wrap;html=1;" vertex="1" parent="1">
          <mxGeometry x="180" y="650" width="120" height="80" as="geometry" />
        </mxCell>
        <mxCell id="b3icUw7pM6aVteXzmlpQ-29" style="edgeStyle=orthogonalEdgeStyle;rounded=0;orthogonalLoop=1;jettySize=auto;html=1;entryX=0.567;entryY=0;entryDx=0;entryDy=0;entryPerimeter=0;" edge="1" parent="1" source="b3icUw7pM6aVteXzmlpQ-23" target="b3icUw7pM6aVteXzmlpQ-28">
          <mxGeometry relative="1" as="geometry" />
        </mxCell>
        <mxCell id="b3icUw7pM6aVteXzmlpQ-31" value="WebSocket" style="text;html=1;align=center;verticalAlign=middle;resizable=0;points=[];autosize=1;strokeColor=none;fillColor=none;" vertex="1" parent="1">
          <mxGeometry x="45" y="638" width="90" height="30" as="geometry" />
        </mxCell>
        <mxCell id="b3icUw7pM6aVteXzmlpQ-33" value="" style="shape=cylinder3;whiteSpace=wrap;html=1;boundedLbl=1;backgroundOutline=1;size=15;" vertex="1" parent="1">
          <mxGeometry x="1150" y="424" width="60" height="80" as="geometry" />
        </mxCell>
        <mxCell id="b3icUw7pM6aVteXzmlpQ-34" style="edgeStyle=orthogonalEdgeStyle;rounded=0;orthogonalLoop=1;jettySize=auto;html=1;entryX=0.5;entryY=1;entryDx=0;entryDy=0;entryPerimeter=0;" edge="1" parent="1" source="b3icUw7pM6aVteXzmlpQ-20" target="b3icUw7pM6aVteXzmlpQ-33">
          <mxGeometry relative="1" as="geometry">
            <Array as="points">
              <mxPoint x="580" y="600" />
              <mxPoint x="1180" y="600" />
            </Array>
          </mxGeometry>
        </mxCell>
      </root>
    </mxGraphModel>
  </diagram>
</mxfile>
